<?xml version="1.0" encoding="utf-8"?>
<svg fill="currentColor" height="800px" width="800px" version="1.1"
  xmlns="http://www.w3.org/2000/svg" viewBox="0 0 512 512" xml:space="preserve">

  <!-- Original envelope -->
  <path d="M508.62,201.511c-2.386-5.416-5.93-10.307-10.597-14.206l-63.935-53.4v-28.208
    c0-21.478-17.478-38.957-38.957-38.957h-41.462l-65.071-54.342
    c-18.902-16.196-46.305-16.196-65.033-0.141L158.332,66.74H116.87
    c-21.478,0-38.957,17.478-38.957,38.957v28.209l-63.924,53.399
    c-4.668,3.896-8.214,8.78-10.602,14.189C2.729,202.952,0,210.438,0,217.207V461.68
    c0,27.619,22.468,50.087,50.087,50.087h411.826c27.619,0,50.087-22.468,50.087-50.087
    V217.207C512,210.846,509.47,203.399,508.62,201.511z
    M77.913,236.162L42.748,206.79l35.165-29.37V236.162z
    M245.141,37.745c6.283-5.397,15.423-5.392,21.88,0.141l34.547,28.853H210.43L245.141,37.745z
    M400.696,264.053l-133.837,111.79c-6.283,5.397-15.435,5.392-21.88-0.141
    L111.304,264.052V105.696c0-3.071,2.5-5.565,5.565-5.565H395.13
    c3.065,0,5.565,2.494,5.565,5.565V264.053z
    M434.087,236.163v-58.748l35.17,29.372L434.087,236.163z"/>

  <!-- User head — shifted down from cy=62 to cy=97 -->
  <circle cx="256" cy="170" r="42"/>

  <!-- User shoulders — shifted further down -->
  <path d="M158,273 Q158,229 256,229 Q354,229 354,273 Z"/>

  <!-- Plus badge -->
  <path fill-rule="evenodd" d="
    M 430,430
    m -58,0
    a 58,58 0 1,0 116,0
    a 58,58 0 1,0 -116,0 Z
    M 419,402 L 441,402 L 441,419 L 458,419 L 458,441 L 441,441 L 441,458 L 419,458 L 419,441 L 402,441 L 402,419 L 419,419 Z
  "/>

</svg>
